<svg width="18" height="17" fill="none" xmlns="http://www.w3.org/2000/svg"><path d="M17 9.06v5.248c0 .996-.8 1.803-1.79 1.803H2.79c-.99 0-1.79-.807-1.79-1.803V2.803C1 1.807 1.8 1 2.79 1H9" stroke="#555" stroke-width="1.25" stroke-linecap="round" stroke-linejoin="round"/><path d="m5.292 12.709 3.316-.83a.895.895 0 0 0 .414-.234l7.458-7.457a1.777 1.777 0 0 0 0-2.514l-.153-.153a1.777 1.777 0 0 0-2.514 0L6.355 8.979a.89.89 0 0 0-.234.413l-.829 3.317M12.405 2.929l2.667 2.667" stroke="#555" stroke-width="1.25" stroke-linecap="round" stroke-linejoin="round"/><path d="M8.597 11.882c.013-.094.029-.188.029-.285a2.222 2.222 0 0 0-2.222-2.223c-.098 0-.192.017-.286.029" stroke="#555" stroke-width="1.25" stroke-linecap="round" stroke-linejoin="round"/></svg>