<svg width="18" height="15" fill="none" xmlns="http://www.w3.org/2000/svg"><path d="M10.886 5.338a2.67 2.67 0 0 1 0 3.773 2.67 2.67 0 0 1-3.773 0 2.67 2.67 0 0 1 0-3.773 2.667 2.667 0 0 1 3.773 0" stroke="#000" stroke-width="1.25" stroke-linecap="round" stroke-linejoin="round"/><path clip-rule="evenodd" d="M1 7.222c0-.586.135-1.165.396-1.7v0C2.743 2.77 5.72 1 9 1c3.28 0 6.257 1.77 7.604 4.523v0c.26.534.396 1.113.396 1.7 0 .585-.135 1.165-.396 1.699v0C15.257 11.675 12.28 13.444 9 13.444c-3.28 0-6.257-1.77-7.604-4.522v0A3.863 3.863 0 0 1 1 7.222Z" stroke="#000" stroke-width="1.25" stroke-linecap="round" stroke-linejoin="round"/></svg>