<svg width="18" height="15" viewBox="0 0 18 15" fill="none" xmlns="http://www.w3.org/2000/svg">
<path d="M10.886 5.33766C11.9269 6.37855 11.9269 8.06833 10.886 9.111C9.84514 10.1519 8.15536 10.1519 7.1127 9.111C6.07181 8.07011 6.07181 6.38033 7.1127 5.33766C8.15536 4.295 9.84425 4.295 10.886 5.33766" stroke="black" stroke-width="1.25" stroke-linecap="round" stroke-linejoin="round"/>
<path fill-rule="evenodd" clip-rule="evenodd" d="M1 7.22222C1 6.63644 1.13511 6.05689 1.39644 5.52267V5.52267C2.74311 2.76978 5.71911 1 9 1C12.2809 1 15.2569 2.76978 16.6036 5.52267V5.52267C16.8649 6.05689 17 6.63644 17 7.22222C17 7.808 16.8649 8.38756 16.6036 8.92178V8.92178C15.2569 11.6747 12.2809 13.4444 9 13.4444C5.71911 13.4444 2.74311 11.6747 1.39644 8.92178V8.92178C1.13511 8.38756 1 7.808 1 7.22222Z" stroke="black" stroke-width="1.25" stroke-linecap="round" stroke-linejoin="round"/>
</svg>
