<svg width="18" height="17" viewBox="0 0 18 17" fill="none" xmlns="http://www.w3.org/2000/svg">
<path d="M17 9.05956V14.3084C17 15.304 16.1991 16.1111 15.2107 16.1111H2.78933C1.80089 16.1111 1 15.304 1 14.3084V2.80267C1 1.80711 1.80089 1 2.78933 1H9" stroke="#555555" stroke-width="1.25" stroke-linecap="round" stroke-linejoin="round"/>
<path d="M5.29199 12.7085L8.60844 11.8791C8.76488 11.84 8.9071 11.7591 9.02177 11.6454L16.4795 4.18758C17.1738 3.49336 17.1738 2.36802 16.4795 1.6738L16.3267 1.52091C15.6324 0.826689 14.5071 0.826689 13.8129 1.52091L6.3551 8.97869C6.24133 9.09247 6.16044 9.23558 6.12133 9.39202L5.29199 12.7085" stroke="#555555" stroke-width="1.25" stroke-linecap="round" stroke-linejoin="round"/>
<path d="M12.4053 2.92896L15.0719 5.59562" stroke="#555555" stroke-width="1.25" stroke-linecap="round" stroke-linejoin="round"/>
<path d="M8.59728 11.8818C8.60972 11.7876 8.62572 11.6943 8.62572 11.5965C8.62572 10.3689 7.63105 9.37427 6.4035 9.37427C6.30572 9.37427 6.21239 9.39116 6.11816 9.40271" stroke="#555555" stroke-width="1.25" stroke-linecap="round" stroke-linejoin="round"/>
</svg>
